<svg xmlns="http://www.w3.org/2000/svg" xmlns:xlink="http://www.w3.org/1999/xlink" version="1.1" viewBox="0 0 233.82813 156.22315"><title>Flag of Uganda</title>
<defs>
<clipPath id="clip_1">
<path transform="matrix(1,0,0,-1,-259.78126,421.8413)" d="M259.78126 265.61817H493.60939V421.8413H259.78126Z" clip-rule="evenodd"/>
</clipPath>
</defs>
<g clip-path="url(#clip_1)">
<g>
<path transform="matrix(1,0,0,1,-259.78126,421.8413)" d="M492.60939-266.61817H260.78126V-292.3213H492.60939V-266.61817Z" fill="#ed1c24"/>
<path transform="matrix(1,0,0,1,-259.78126,421.8413)" d="M492.60939-292.3213H260.78126V-318.0254H492.60939V-292.3213Z" fill="#fff200"/>
<path transform="matrix(1,0,0,1,-259.78126,421.8413)" d="M492.60939-318.0254H260.78126V-343.7295H492.60939V-318.0254Z" fill="#231f20"/>
<path transform="matrix(1,0,0,1,-259.78126,421.8413)" d="M492.60939-343.7295H260.78126V-369.4336H492.60939V-343.7295Z" fill="#ed1c24"/>
<path transform="matrix(1,0,0,1,-259.78126,421.8413)" d="M492.60939-369.4336H260.78126V-395.13673H492.60939V-369.4336Z" fill="#fff200"/>
<path transform="matrix(1,0,0,1,-259.78126,421.8413)" d="M492.60939-395.13673H260.78126V-420.8413H492.60939V-395.13673Z" fill="#231f20"/>
<path transform="matrix(1,0,0,1,-259.78126,421.8413)" d="M352.30177-344.37794C352.30177-357.76564 363.15626-368.6211 376.54396-368.6211 389.9336-368.6211 400.7881-357.76564 400.7881-344.37794 400.7881-330.98829 389.9336-320.1338 376.54396-320.1338 363.15626-320.1338 352.30177-330.98829 352.30177-344.37794Z" fill="#ffffff"/>
<path transform="matrix(1,0,0,1,-259.78126,421.8413)" d="M370.95216-365.21485 372.80567-362.16896C372.80567-362.16896 373.49903-362.84767 374.3662-362.89259L374.12403-366.1631C374.12403-366.1631 371.75489-366.01759 370.95216-365.21485Z" fill="#ed1c24"/>
<path transform="matrix(1,0,0,1,-259.78126,421.8413)" d="M378.3711-360.3125 381.00294-361.2207C381.00294-361.2207 380.13966-363.40333 379.1914-364.3496L377.71778-361.92579C377.71778-361.92579 378.4502-361.37794 378.3711-360.3125Z" fill="#ed1c24"/>
<path transform="matrix(1,0,0,1,-259.78126,421.8413)" d="M378.11427-332.9248C378.11427-332.9248 380.15138-332.56935 380.15138-333.15138 380.15138-333.7334 378.3086-336.28907 378.3086-336.28907 378.3086-336.28907 377.91993-334.38087 378.11427-332.9248ZM372.39356-357.96583 368.68653-358.25294C368.68653-358.99513 372.3955-359.20118 372.3955-359.40724 372.3955-359.61329 371.40919-359.5713 372.43849-361.67286 373.4668-363.7754 378.3711-363.23829 378.3711-360.3125 378.3711-357.3877 377.01466-357.63673 375.65626-355.6172 374.29786-353.59767 375.16114-349.31446 375.16114-349.31446 374.50196-346.2666 377.1377-343.38185 377.1377-343.38185 382.6162-342.3506 385.42384-337.32423 385.42384-337.32423H385.2539 380.99317C380.02247-336.35353 382.09278-333.86329 382.44825-333.5078 382.8037-333.15138 382.62599-332.61817 382.31837-332.31056 382.01173-332.0039 378.34083-332.01954 378.34083-332.01954V-324.93653C380.57228-324.93653 381.89845-323.8047 381.89845-323.8047 381.89845-323.8047 378.5996-323.64259 377.91993-323.64259 377.2412-323.64259 373.23048-321.44337 373.23048-321.44337 373.23048-322.51075 374.75099-323.93458 374.75099-323.93458H371.6787C371.9043-324.48439 373.5537-324.80763 373.5537-324.80763H377.2412C377.2412-324.80763 377.2412-327.7832 377.2412-329.8203 377.2412-331.85743 376.23829-332.21388 376.23829-332.21388 376.23829-332.21388 372.64845-332.21388 371.6787-332.21388 370.02833-332.21388 369.8994-329.46485 369.8994-329.46485L369.54396-331.50196C368.70314-331.50196 368.5088-328.91505 368.5088-328.91505 368.21778-328.91505 368.3877-331.05763 367.99903-331.05763 367.61134-331.05763 367.11817-328.63575 367.11817-328.63575 367.11817-333.22853 369.9541-333.22853 369.9541-333.22853H376.99024V-337.43263C375.917-337.43263 375.1328-339.2881 375.1328-339.2881 372.10255-339.2881 370.54005-342.3164 370.54005-342.3164 363.60255-347.88575 372.3955-355.3164 372.3955-355.3164 373.59278-356.95118 372.39356-357.96583 372.39356-357.96583Z" fill="#231f20"/>
<path transform="matrix(1,0,0,1,-259.78126,421.8413)" d="M374.12403-366.1631C374.12403-366.1631 378.13478-365.88185 379.1914-364.3496L377.71778-361.92579C377.71778-361.92579 376.07228-363.37696 374.3662-362.89259L374.12403-366.1631Z" fill="#fff200"/>
<path transform="matrix(1,0,0,1,-259.78126,421.8413)" d="M375.65626-339.5879C375.65626-339.5879 377.53224-340.4287 378.37306-339.5879 378.37306-339.5879 376.1416-342.66017 375.7207-342.66017 375.30079-342.66017 375.30079-340.46095 375.65626-339.5879Z" fill="#c7c8ca"/>
<path transform="matrix(1,0,0,1,-259.78126,421.8413)" d="M371.4453-356.60548C371.4453-357.17579 371.90626-357.63673 372.47657-357.63673 373.04689-357.63673 373.5078-357.17579 373.5078-356.60548 373.5078-356.03614 373.04689-355.5752 372.47657-355.5752 371.90626-355.5752 371.4453-356.03614 371.4453-356.60548Z" fill="#ed1c24"/>
<path transform="matrix(1,0,0,1,-259.78126,421.8413)" d="M373.25685-359.9004C373.25685-360.17579 373.4795-360.39747 373.7539-360.39747 374.0293-360.39747 374.25099-360.17579 374.25099-359.9004 374.25099-359.62599 374.0293-359.40333 373.7539-359.40333 373.4795-359.40333 373.25685-359.62599 373.25685-359.9004Z" fill="#ffffff"/>
<path transform="matrix(1,0,0,1,-259.78126,421.8413)" d="M370.99903-344.95606C370.99903-344.95606 369.3496-348.0293 371.54884-352.1045 373.74806-356.1787 374.20118-356.1787 374.20118-356.1787 374.20118-356.1787 372.4541-351.4248 373.06935-349.6787 373.6836-347.93165 373.6836-348.1582 373.6836-348.1582H372.90724C372.90724-348.1582 373.4248-347.8994 373.06935-347.54396 372.7129-347.18849 372.42189-347.18849 372.42189-347.18849 372.42189-347.18849 372.38966-346.4121 371.83985-346.60548 371.83985-346.60548 372.09864-345.73243 371.83985-345.73243 371.58106-345.73243 371.54884-344.53614 371.12794-344.95606" fill="#c7c8ca"/>
<path transform="matrix(1,0,0,1,-259.78126,421.8413)" d="M374.9121-358.66993C374.9121-358.66993 376.46485-358.96095 376.07716-361.4834 376.07716-361.4834 376.98243-362.22755 377.2412-359.8662 377.5-357.50489 374.87989-357.21388 374.87989-357.69923 374.87989-358.18458 374.17677-358.19825 374.9121-358.66993Z" fill="#c7c8ca"/>
<path transform="matrix(1,0,0,1,-259.78126,421.8413)" d="M381.07325-341.79493 381.05567-341.90235C381.01466-341.92677 380.99317-341.95314 380.99317-341.98146 380.99317-342.20704 378.5996-344.14747 377.6289-344.5039 376.65919-344.85939 376.7881-345.92677 376.7881-345.92677 376.58985-346.82423 378.18849-347.1582 378.6963-347.0586 380.04884-346.79298 380.95997-345.47364 383.38575-344.73048 383.52149-344.68946 383.63087-344.64356 383.75587-344.6006L384.55079-344.92384C385.87599-344.66114 386.9541-344.27735 387.86524-343.82423L387.88185-343.91798 378.22364-348.3662C378.22364-348.3662 374.8291-350.35743 374.8291-348.3662 374.8291-346.375 374.70997-343.333 379.45216-341.75294 384.19435-340.17189 384.51368-337.8047 385.65626-336.66114L385.8584-337.26075C385.02149-339.71485 381.07325-341.79493 381.07325-341.79493Z" fill="#c7c8ca"/>
<path transform="matrix(1,0,0,1,-259.78126,421.8413)" d="M387.86524-343.82423C386.9541-344.27735 385.87599-344.66114 384.55079-344.92384L383.75587-344.6006C385.8623-343.8711 386.2373-343.17286 386.2373-343.17286 386.2373-343.17286 386.45899-342.5957 386.10255-342.5957 385.8418-342.5957 384.25978-343.41407 383.5498-343.84864 383.8838-343.43653 384.26564-342.66603 384.11427-342.51466 383.95997-342.36134 382.55079-342.64845 381.92286-342.81349 382.30079-342.61134 382.80958-342.14845 382.60939-341.94825 382.3838-341.72267 381.32228-341.7422 381.05567-341.90235L381.07325-341.79493C381.07325-341.79493 385.02149-339.71485 385.8584-337.26075 385.95704-336.97364 386.0381-336.68067 386.0381-336.38575 386.0381-335.07814 386.0381-334.56837 386.0381-334.38087 386.0381-334.38087 387.2998-335.6416 387.2998-337.09767 387.2998-338.55274 388.56056-335.41603 386.9756-333.83106 385.3916-332.2461 384.87403-331.72853 384.87403-331.72853L385.19728-331.40528V-330.59669L386.62013-331.24317 386.78224-330.5 387.88185-331.0498 386.62013-329.33497C386.62013-329.33497 390.59864-331.0166 391.43946-333.79884 392.15235-336.16114 393.0078-341.26759 387.86524-343.82423Z" fill="#ed1c24"/>
</g>
</g>
</svg>
